<svg version="1" xmlns="http://www.w3.org/2000/svg" width="866.667" height="866.667" viewBox="0 0 650.000000 650.000000"><path d="M319 69.2c-33.4 5-41.7 49.4-12.3 66l5.3 3 .1 6.1c0 7 0 63.1-.1 66.4 0 2.1-2.6 2.8-13.5 3.7-1.9.1-2-.6-2-18.1 0-10-.3-18.5-.7-18.8-1.2-1.2-26.8 6.6-38.1 11.5-30 13.3-51.1 31.3-73.6 62.8-4 5.7-7 10.6-6.6 11 .3.4 9.9.7 21.1.8 11.2 0 20.7.3 21 .6.3.3-1.4 3.8-3.8 7.7l-4.3 7-32.6.1h-32.5l-1.7-3.8c-3.5-8-15.1-17.1-23.8-18.7-6.2-1.1-7-1.2-13-.3-11.8 1.6-21.8 9.2-27.2 20.7-5.4 11.4-3.7 25.9 4.2 35.9 15.7 19.8 44.7 18.1 58.4-3.4l4.1-6.5 7.6.3c7.2.3 7.5.4 7.2 2.7-3.1 21.5-3.2 27.2-1.9 58.1l.2 4.5H94.6l-2.1-4c-4.9-9.6-16.3-17.6-27.1-19-6.3-.8-16.3.9-21.2 3.7-15.4 8.7-22.7 27.7-16.8 43.3 2.5 6.7 5.9 11.2 11.7 15.8 6.3 5 10.8 6.7 18.8 7.4 14.3 1.2 28.9-6.9 34.9-19.3.8-1.9 2-3.5 2.6-3.5 3.5-.5 113.8-.4 114.5.1 1.2.8 8.1 12.7 8.1 13.9 0 1.3.6 1.3-23.8 1.3-14.6.1-19.5.4-19.9 1.3-.4 1.2 4.5 9.7 12.8 22 12 17.9 30 35.6 47.6 46.8 27.4 17.5 58.3 26.3 90.8 26 11.8-.1 32.4-2.5 37.2-4.4 1.3-.5 3.7-1.1 5.3-1.4 1.5-.3 3.9-.9 5.2-1.4l2.3-.8.1-23.2c0-12.7.5-23.6 1-24.1 1.8-1.7 14.4-8.1 14.5-7.3.4 2.9.3 61.6-.1 62.2-.3.4-2.6 1.9-5.1 3.3-29 16.8-21.3 60.3 11.7 65.9 28.4 4.9 50.2-24.7 37.4-50.7-3.2-6.6-10.1-13.6-15.6-16-1.7-.7-3.4-2.1-3.8-2.9-.8-2.1-.8-22.3 0-25 .3-1.1 4-4.5 8.1-7.5 14.3-10.4 29.2-26.4 39.7-42.8l4.7-7.2h37.4l2.7 4.8c5.2 9.2 14.7 16.2 24.5 18 26.2 4.7 48.2-19.4 40.7-44.8-2.1-7-5.1-11.7-11.1-17.1-9.8-8.7-24.9-11-37-5.5-6.9 3.1-15.9 11.8-18.2 17.3l-1.3 3.3h-12.9c-14.7 0-14.2.5-11-9.2 4.7-13.9 6.5-26.5 6.5-45.8.1-19.1-.3-23.6-3-36.7-1.7-8.5-1.7-8.3-1.5-9.8.1-.7 10.1-1 28.9-.9 15.8.1 29 .2 29.4.3.3 0 2 2.5 3.6 5.3 10.6 18.4 34.6 23.4 51.7 10.8 23.2-17.1 17.1-53.6-10.4-62.5-7.4-2.4-17.8-1.7-25.4 1.8-6.4 2.9-14.2 10.2-17.2 16.2l-2.1 4H510c-32.9.1-37-.1-37-1.5 0-1-7.2-14-10.8-19.5-5.6-8.5-16.4-21.4-24.3-29l-8.2-7.9-.2-17.5c-.1-9.7.1-18.2.3-18.8.2-.7 2.8-2.6 5.7-4.3 6.7-3.8 11-8.7 14.6-16.5 2.5-5.3 2.8-7 2.5-15-.2-10.9-2.6-16.5-10.1-24-6.7-6.8-13-9.7-22.6-10.3-32.6-2-50.4 36.8-27.5 60.1 2.4 2.4 6.1 5.2 8.2 6.2 2.2 1 4.2 2.3 4.6 2.8.8 1.4.8 18.1 0 19.4-.4.6-4.8-1-10.7-3.8-14.2-6.8-26.9-10.8-43-13.5-7.7-1.3-14.3-2.4-14.8-2.4-.4 0-.7-8.3-.7-18.5l.1-18.5 4-2.1c22.3-11.3 26.2-41.5 7.5-58.2-7.4-6.6-18.6-10-28.6-8.5zm11.7 25.4c7.3 4.5 6.5 16.2-1.3 19.9-5.2 2.4-9 1.9-13.1-1.8-3.1-2.9-3.6-4-3.7-8-.2-9.9 9.6-15.4 18.1-10.1zm93.2 36.3c3 1.7 6.1 7 6.1 10.6 0 3.7-3.1 8.9-6.2 10.6-1.2.7-4.3 1.2-6.8 1.1-3.8 0-4.9-.5-7.7-3.6-9.4-10.3 2.3-25.3 14.6-18.7zm-76.3 69.6c17.7 2.9 39.6 11.6 54.9 21.8 34.5 23 58 62 61.9 102.8.9 8.4.9 26.2.1 31.4-3.9 25.8-11.5 45.4-25 64.6-6.9 9.7-21.8 25.5-23.2 24.6-.6-.4-1-6-1-13.2V420l6.4-8.8c12.6-17.3 19.8-34.8 23.3-56.7 1.2-7.5 1.5-26 .6-31.6-.4-1.9-.8-5-1-6.9-.9-7.7-6.4-24.5-11.3-34.5-11.8-23.7-32.1-44.1-55.3-55.6-10.4-5.2-25.2-10-34.5-11.4-7.6-1.1-7.5-1-7.5-7.9 0-5.5.5-7.6 1.7-7.6.2 0 4.6.7 9.9 1.5zm-75.5 9.2c.1.5.2 3.4.3 6.7l.1 5.8-5.6 2.8c-3 1.6-9.3 5.4-14 8.6-8.4 5.7-8.4 5.7-16.4 5.9-10.1.2-11.2-.1-8.8-2.7 5.8-6.5 24.7-19.3 36.5-24.8 6.8-3.1 7.7-3.4 7.9-2.3zm312.5 64.7c2.9 2.9 3.4 4.1 3.4 8.1s-.5 5.2-3.4 8.1c-2.9 2.9-4.1 3.4-8.1 3.4s-5.2-.5-8.1-3.4c-2.9-2.9-3.4-4.1-3.4-8.1s.5-5.2 3.4-8.1c2.9-2.9 4.1-3.4 8.1-3.4s5.2.5 8.1 3.4zm-467.1 6c3.8 1.6 7.5 6.8 7.5 10.4 0 6.6-6 12.2-12.9 12.2-4.2 0-9.7-5-10.5-9.6-1-4.8 1.9-10.4 6.4-12.6 4.2-2.2 5.1-2.2 9.5-.4zm83.1 26.3c-3.7 20-4.1 38.4-1.2 52.6 1 4.2 1.5 8.1 1.2 8.6-.9 1.4-13.2 1.3-14.3-.1-3.5-4.5-4-40.6-.9-55.3 1-4.4 2-8.3 2.2-8.7.3-.5 3.5-.8 7.1-.8h6.6l-.7 3.7zM67.4 371.1c7.3 5.7 6.9 14.9-.8 19.5-10 5.9-21.4-5.3-16.1-15.6 3-5.8 11.8-7.9 16.9-3.9zm477.1 27.5c8.5 4 8.6 16.7.1 20.8-4.4 2.1-5.8 2-10.5-.3-8.3-4.3-8.4-16.3-.2-20.3 4-1.9 7-2 10.6-.2zm-293.8 40.1c14.6 9.7 25.4 14.7 40.3 18.6 16.1 4.3 36.2 5.1 52.5 2 8.3-1.6 8-1.9 8.2 8.9.2 5.4 0 9.8-.4 9.9-.5 0-1.9.3-3.3.5-11.3 2.1-31.7 2.6-42.5 1-22.2-3.3-42.5-11.1-60.7-23.3-9.8-6.5-25.8-20.9-25.8-23.2 0-.8 3.3-1.1 11-1l10.9.1 9.8 6.5zm156.7 88.7c12.3 5.1 8.7 22.6-4.6 22.6-4.2 0-9.5-4.3-10.7-8.6-.6-2-.4-4.3.5-6.9 1.7-5.1 4.5-7.3 10.7-8.4.4 0 2.2.5 4.1 1.3z"/></svg>