<?xml version="1.0" encoding="UTF-8"?>
<svg width="40" height="40" viewBox="0 0 256 240" version="1.1" xmlns="http://www.w3.org/2000/svg"
    xmlns:xlink="http://www.w3.org/1999/xlink" preserveAspectRatio="xMidYMid">
    <defs>
        <linearGradient x1="49.9996994%" y1="1089.3962%" x2="49.9996994%" y2="-159.499661%" id="linearGradient-1">
            <stop stop-color="#473788" offset="30.33%"></stop>
            <stop stop-color="#2C2255" offset="87.2%"></stop>
        </linearGradient>
        <linearGradient x1="49.9989479%" y1="896.536635%" x2="49.9989479%" y2="-352.359227%" id="linearGradient-2">
            <stop stop-color="#473788" offset="30.33%"></stop>
            <stop stop-color="#2C2255" offset="87.2%"></stop>
        </linearGradient>
        <linearGradient x1="49.9988435%" y1="215.169856%" x2="49.9988435%" y2="-166.715419%" id="linearGradient-3">
            <stop stop-color="#473788" offset="30.33%"></stop>
            <stop stop-color="#2C2255" offset="86.31%"></stop>
        </linearGradient>
    </defs>
    <g>
        <path
            d="M251.481071,152.819687 C246.245691,170.642011 236.536567,186.62 222.330265,200.732561 L221.705382,201.357553 C203.966028,218.982612 183.308033,229.550237 159.751763,233.105682 C153.799271,234.003242 147.671016,234.474286 141.345908,234.474286 C109.70396,234.474286 82.6458994,223.2372 60.1436046,200.732561 C46.0286993,186.615313 36.387537,170.642011 31.1919957,152.819687 L31.1919957,152.819687 Z M255.903257,126.17174 C255.692342,130.41746 255.253639,134.566371 254.617899,138.635555 L254.39873,139.989021 L28.2954287,139.989021 C27.6183913,135.937342 27.1387705,131.807836 26.8804839,127.583418 L26.8026187,126.17174 L255.903257,126.17174 Z M254.394043,99.5237922 C255.075299,103.57758 255.557239,107.707297 255.817656,111.930028 L255.896227,113.341073 L26.8026187,113.341073 C27.0114246,109.097462 27.4461206,104.948762 28.0776636,100.87789 L28.2954287,99.5237922 L254.394043,99.5237922 Z"
            fill="white"></path>
        <path
            d="M251.485758,86.6907818 C246.255065,68.8192446 236.543597,52.7709511 222.330265,38.5552752 C204.498567,20.7235776 183.690624,10.0254964 159.934556,6.42587921 C153.92582,5.51425739 147.736634,5.03618323 141.345908,5.03618323 C109.70396,5.03618323 82.6435559,16.2123386 60.1436046,38.5552752 C46.0240123,52.7709511 36.378163,68.8192446 31.1849652,86.6907818"
            fill="white"></path>
        <path
            d="M19.9900619,119.759922 C19.9900619,59.2413568 65.44226,8.95686008 124.571129,0.112488039 C123.104097,0.0585875201 121.630035,0 120.148943,0 C53.795061,0 0,53.6192984 0,119.759922 C0,185.902888 53.7927175,239.519843 120.148943,239.519843 C121.634722,239.519843 123.108784,239.463599 124.580503,239.409699 C65.44226,230.565327 19.9900619,180.28083 19.9900619,119.759922 Z"
            fill="white"></path>

    </g>
</svg>